<svg width="188" height="880" viewBox="0 0 188 880" fill="none" xmlns="http://www.w3.org/2000/svg">
<path d="M175.9 868.5L176.574 869.239L176.582 869.231L175.9 868.5ZM12.1 868.5L11.4176 869.231L11.4265 869.239L12.1 868.5ZM12.1 805.84L12.7735 806.579L12.7823 806.571L12.1 805.84ZM64.36 794.92L65.36 794.92L65.36 793.92L64.36 793.92L64.36 794.92ZM64.36 821.96L64.36 822.96L65.36 822.96L65.36 821.96L64.36 821.96ZM117.14 821.96L116.14 821.96L116.14 822.96L117.14 822.96L117.14 821.96ZM117.14 794.92L117.14 793.92L116.14 793.92L116.14 794.92L117.14 794.92ZM175.9 805.84L175.218 806.571L175.227 806.579L175.9 805.84ZM186.6 837.04C186.6 850.539 182.761 860.728 175.218 867.769L176.582 869.231C184.639 861.712 188.6 850.927 188.6 837.04L186.6 837.04ZM175.227 867.761C167.667 874.649 156.932 878.16 142.88 878.16L142.88 880.16C157.255 880.16 168.533 876.565 176.573 869.239L175.227 867.761ZM142.88 878.16L45.12 878.16L45.12 880.16L142.88 880.16L142.88 878.16ZM45.12 878.16C31.068 878.16 20.3334 874.649 12.7735 867.761L11.4265 869.239C19.4666 876.565 30.7453 880.16 45.12 880.16L45.12 878.16ZM12.7823 867.769C5.23863 860.728 1.39999 850.539 1.39999 837.04L-0.600012 837.04C-0.600012 850.927 3.36135 861.712 11.4177 869.231L12.7823 867.769ZM1.39999 837.04C1.39999 823.539 5.23904 813.444 12.7735 806.579L11.4265 805.101C3.36094 812.449 -0.600013 823.154 -0.600012 837.04L1.39999 837.04ZM12.7823 806.571C20.3426 799.515 31.0739 795.92 45.12 795.92L45.12 793.92C30.7394 793.92 19.4574 797.605 11.4177 805.109L12.7823 806.571ZM45.12 795.92L64.36 795.92L64.36 793.92L45.12 793.92L45.12 795.92ZM63.36 794.92L63.36 821.96L65.36 821.96L65.36 794.92L63.36 794.92ZM64.36 820.96L43.3 820.96L43.3 822.96L64.36 822.96L64.36 820.96ZM43.3 820.96C37.5495 820.96 33.0502 822.173 29.9791 824.772C26.8759 827.397 25.4 831.291 25.4 836.26L27.4 836.26C27.4 831.695 28.7408 828.439 31.2709 826.298C33.8331 824.13 37.7838 822.96 43.3 822.96L43.3 820.96ZM25.4 836.26C25.4 841.229 26.8759 845.123 29.9791 847.748C33.0502 850.347 37.5495 851.56 43.3 851.56L43.3 849.56C37.7838 849.56 33.8331 848.39 31.2709 846.222C28.7408 844.081 27.4 840.825 27.4 836.26L25.4 836.26ZM43.3 851.56L144.96 851.56L144.96 849.56L43.3 849.56L43.3 851.56ZM144.96 851.56C150.627 851.56 155.064 850.346 158.092 847.743C161.149 845.116 162.6 841.224 162.6 836.26L160.6 836.26C160.6 840.83 159.278 844.087 156.788 846.227C154.27 848.391 150.386 849.56 144.96 849.56L144.96 851.56ZM162.6 836.26C162.6 831.296 161.149 827.404 158.092 824.777C155.064 822.174 150.627 820.96 144.96 820.96L144.96 822.96C150.386 822.96 154.27 824.129 156.788 826.293C159.278 828.433 160.6 831.69 160.6 836.26L162.6 836.26ZM144.96 820.96L117.14 820.96L117.14 822.96L144.96 822.96L144.96 820.96ZM118.14 821.96L118.14 794.92L116.14 794.92L116.14 821.96L118.14 821.96ZM117.14 795.92L142.88 795.92L142.88 793.92L117.14 793.92L117.14 795.92ZM142.88 795.92C156.926 795.92 167.657 799.515 175.218 806.571L176.582 805.109C168.543 797.605 157.261 793.92 142.88 793.92L142.88 795.92ZM175.227 806.579C182.761 813.444 186.6 823.539 186.6 837.04L188.6 837.04C188.6 823.154 184.639 812.449 176.573 805.101L175.227 806.579ZM2.99998 747.809L1.99998 747.809L1.99998 748.809L2.99998 748.809L2.99998 747.809ZM2.99998 719.209L2.99998 718.209L1.99998 718.209L1.99998 719.209L2.99998 719.209ZM159 719.209L159 720.209L160 720.209L160 719.209L159 719.209ZM159 672.149L159 671.149L158 671.149L158 672.149L159 672.149ZM185 672.149L186 672.149L186 671.149L185 671.149L185 672.149ZM185 747.809L185 748.809L186 748.809L186 747.809L185 747.809ZM3.99998 747.809L3.99998 719.209L1.99998 719.209L1.99998 747.809L3.99998 747.809ZM2.99998 720.209L159 720.209L159 718.209L2.99998 718.209L2.99998 720.209ZM160 719.209L160 672.149L158 672.149L158 719.209L160 719.209ZM159 673.149L185 673.149L185 671.149L159 671.149L159 673.149ZM184 672.149L184 747.809L186 747.809L186 672.149L184 672.149ZM185 746.809L2.99998 746.809L2.99998 748.809L185 748.809L185 746.809ZM2.99998 628.434L1.99998 628.434L1.99998 629.434L2.99998 629.434L2.99998 628.434ZM2.99998 599.834L2.99997 598.834L1.99997 598.834L1.99998 599.834L2.99998 599.834ZM185 599.834L186 599.834L186 598.834L185 598.834L185 599.834ZM185 628.434L185 629.434L186 629.434L186 628.434L185 628.434ZM3.99998 628.434L3.99998 599.834L1.99998 599.834L1.99998 628.434L3.99998 628.434ZM2.99998 600.834L185 600.834L185 598.834L2.99997 598.834L2.99998 600.834ZM184 599.834L184 628.434L186 628.434L186 599.834L184 599.834ZM185 627.434L2.99998 627.434L2.99998 629.434L185 629.434L185 627.434ZM175.9 539.574L176.574 540.313L176.582 540.305L175.9 539.574ZM12.1 539.574L11.4176 540.305L11.4265 540.313L12.1 539.574ZM12.1 476.914L12.7735 477.653L12.7823 477.645L12.1 476.914ZM64.36 465.994L65.36 465.994L65.36 464.994L64.36 464.994L64.36 465.994ZM64.36 493.034L64.36 494.034L65.36 494.034L65.36 493.034L64.36 493.034ZM117.14 493.034L116.14 493.034L116.14 494.034L117.14 494.034L117.14 493.034ZM117.14 465.994L117.14 464.994L116.14 464.994L116.14 465.994L117.14 465.994ZM175.9 476.914L175.218 477.645L175.226 477.653L175.9 476.914ZM186.6 508.114C186.6 521.614 182.761 531.802 175.218 538.843L176.582 540.305C184.639 532.786 188.6 522.002 188.6 508.114L186.6 508.114ZM175.226 538.835C167.667 545.723 156.932 549.234 142.88 549.234L142.88 551.234C157.255 551.234 168.533 547.639 176.573 540.313L175.226 538.835ZM142.88 549.234L45.12 549.234L45.12 551.234L142.88 551.234L142.88 549.234ZM45.12 549.234C31.068 549.234 20.3334 545.723 12.7735 538.835L11.4265 540.313C19.4666 547.639 30.7453 551.234 45.12 551.234L45.12 549.234ZM12.7823 538.843C5.23862 531.802 1.39997 521.614 1.39997 508.114L-0.600027 508.114C-0.600026 522.002 3.36133 532.786 11.4177 540.305L12.7823 538.843ZM1.39997 508.114C1.39997 494.614 5.23902 484.518 12.7735 477.653L11.4265 476.175C3.36093 483.524 -0.600027 494.228 -0.600027 508.114L1.39997 508.114ZM12.7823 477.645C20.3426 470.589 31.0739 466.994 45.12 466.994L45.12 464.994C30.7394 464.994 19.4574 468.679 11.4177 476.183L12.7823 477.645ZM45.12 466.994L64.36 466.994L64.36 464.994L45.12 464.994L45.12 466.994ZM63.36 465.994L63.36 493.034L65.36 493.034L65.36 465.994L63.36 465.994ZM64.36 492.034L43.3 492.034L43.3 494.034L64.36 494.034L64.36 492.034ZM43.3 492.034C37.5495 492.034 33.0502 493.247 29.979 495.846C26.8759 498.472 25.4 502.366 25.4 507.334L27.4 507.334C27.4 502.77 28.7408 499.514 31.2709 497.373C33.8331 495.205 37.7838 494.034 43.3 494.034L43.3 492.034ZM25.4 507.334C25.4 512.303 26.8759 516.197 29.979 518.823C33.0502 521.421 37.5495 522.634 43.3 522.634L43.3 520.634C37.7838 520.634 33.8331 519.464 31.2709 517.296C28.7408 515.155 27.4 511.899 27.4 507.334L25.4 507.334ZM43.3 522.634L144.96 522.634L144.96 520.634L43.3 520.634L43.3 522.634ZM144.96 522.634C150.627 522.634 155.064 521.42 158.092 518.818C161.149 516.19 162.6 512.298 162.6 507.334L160.6 507.334C160.6 511.904 159.278 515.161 156.788 517.301C154.27 519.465 150.386 520.634 144.96 520.634L144.96 522.634ZM162.6 507.334C162.6 502.371 161.149 498.478 158.092 495.851C155.064 493.248 150.627 492.034 144.96 492.034L144.96 494.034C150.386 494.034 154.27 495.203 156.788 497.368C159.278 499.507 160.6 502.765 160.6 507.334L162.6 507.334ZM144.96 492.034L117.14 492.034L117.14 494.034L144.96 494.034L144.96 492.034ZM118.14 493.034L118.14 465.994L116.14 465.994L116.14 493.034L118.14 493.034ZM117.14 466.994L142.88 466.994L142.88 464.994L117.14 464.994L117.14 466.994ZM142.88 466.994C156.926 466.994 167.657 470.589 175.218 477.645L176.582 476.183C168.543 468.679 157.261 464.994 142.88 464.994L142.88 466.994ZM175.226 477.653C182.761 484.518 186.6 494.614 186.6 508.114L188.6 508.114C188.6 494.228 184.639 483.524 176.573 476.175L175.226 477.653ZM2.99997 418.883L1.99997 418.883L1.99997 419.883L2.99997 419.883L2.99997 418.883ZM2.99997 390.283L2.99997 389.283L1.99997 389.283L1.99997 390.283L2.99997 390.283ZM79.7 390.283L79.7 391.283L80.1287 389.38L79.7 390.283ZM2.99996 353.883L1.99996 353.883L1.99996 354.515L2.57122 354.786L2.99996 353.883ZM2.99996 325.283L3.4541 324.392L1.99996 323.651L1.99996 325.283L2.99996 325.283ZM69.82 359.343L69.3658 360.234L69.7233 360.416L70.1075 360.301L69.82 359.343ZM185 324.763L186 324.763L186 323.419L184.712 323.805L185 324.763ZM185 354.663L185.286 355.621L186 355.408L186 354.663L185 354.663ZM103.88 378.843L103.594 377.885L101.156 378.612L103.437 379.739L103.88 378.843ZM127.02 390.283L126.577 391.179L126.786 391.283L127.02 391.283L127.02 390.283ZM185 390.283L186 390.283L186 389.283L185 389.283L185 390.283ZM185 418.883L185 419.883L186 419.883L186 418.883L185 418.883ZM3.99997 418.883L3.99997 390.283L1.99997 390.283L1.99997 418.883L3.99997 418.883ZM2.99997 391.283L79.7 391.283L79.7 389.283L2.99997 389.283L2.99997 391.283ZM80.1287 389.38L3.42871 352.98L2.57122 354.786L79.2712 391.186L80.1287 389.38ZM3.99996 353.883L3.99996 325.283L1.99996 325.283L1.99996 353.883L3.99996 353.883ZM2.54583 326.174L69.3658 360.234L70.2741 358.452L3.4541 324.392L2.54583 326.174ZM70.1075 360.301L185.288 325.721L184.712 323.805L69.5324 358.385L70.1075 360.301ZM184 324.763L184 354.663L186 354.663L186 324.763L184 324.763ZM184.714 353.705L103.594 377.885L104.166 379.801L185.286 355.621L184.714 353.705ZM103.437 379.739L126.577 391.179L127.463 389.387L104.323 377.947L103.437 379.739ZM127.02 391.283L185 391.283L185 389.283L127.02 389.283L127.02 391.283ZM184 390.283L184 418.883L186 418.883L186 390.283L184 390.283ZM185 417.883L2.99997 417.883L2.99997 419.883L185 419.883L185 417.883ZM2.99996 281.227L1.99996 281.227L1.99996 282.227L2.99996 282.227L2.99996 281.227ZM2.99996 205.567L2.99996 204.567L1.99996 204.567L1.99996 205.567L2.99996 205.567ZM29 205.567L30 205.567L30 204.567L29 204.567L29 205.567ZM29 252.627L28 252.627L28 253.627L29 253.627L29 252.627ZM79.7 252.627L79.7 253.627L80.7 253.627L80.7 252.627L79.7 252.627ZM79.7 215.707L79.7 214.707L78.7 214.707L78.7 215.707L79.7 215.707ZM105.7 215.707L106.7 215.707L106.7 214.707L105.7 214.707L105.7 215.707ZM105.7 252.627L104.7 252.627L104.7 253.627L105.7 253.627L105.7 252.627ZM185 252.627L186 252.627L186 251.627L185 251.627L185 252.627ZM185 281.227L185 282.227L186 282.227L186 281.227L185 281.227ZM3.99996 281.227L3.99996 205.567L1.99996 205.567L1.99996 281.227L3.99996 281.227ZM2.99996 206.567L29 206.567L29 204.567L2.99996 204.567L2.99996 206.567ZM28 205.567L28 252.627L30 252.627L30 205.567L28 205.567ZM29 253.627L79.7 253.627L79.7 251.627L29 251.627L29 253.627ZM80.7 252.627L80.7 215.707L78.7 215.707L78.7 252.627L80.7 252.627ZM79.7 216.707L105.7 216.707L105.7 214.707L79.7 214.707L79.7 216.707ZM104.7 215.707L104.7 252.627L106.7 252.627L106.7 215.707L104.7 215.707ZM105.7 253.627L185 253.627L185 251.627L105.7 251.627L105.7 253.627ZM184 252.627L184 281.227L186 281.227L186 252.627L184 252.627ZM185 280.227L2.99996 280.227L2.99996 282.227L185 282.227L185 280.227ZM2.99996 161.852L1.99996 161.852L1.99996 162.852L2.99996 162.852L2.99996 161.852ZM2.99995 133.252L2.99995 132.252L1.99995 132.252L1.99995 133.252L2.99995 133.252ZM185 133.252L186 133.252L186 132.252L185 132.252L185 133.252ZM185 161.852L185 162.852L186 162.852L186 161.852L185 161.852ZM3.99996 161.852L3.99995 133.252L1.99995 133.252L1.99996 161.852L3.99996 161.852ZM2.99995 134.252L185 134.252L185 132.252L2.99995 132.252L2.99995 134.252ZM184 133.252L184 161.852L186 161.852L186 133.252L184 133.252ZM185 160.852L2.99996 160.852L2.99996 162.852L185 162.852L185 160.852ZM29 59.4722L29 58.4722L28 58.4722L28 59.4722L29 59.4722ZM29 89.3722L29 90.3722L30 90.3722L30 89.3722L29 89.3722ZM2.99995 89.3722L1.99995 89.3722L1.99995 90.3722L2.99995 90.3722L2.99995 89.3722ZM2.99995 0.972178L2.99995 -0.027822L1.99995 -0.027822L1.99995 0.972178L2.99995 0.972178ZM29 0.972177L30 0.972177L30 -0.0278232L29 -0.0278232L29 0.972177ZM29 30.8722L28 30.8722L28 31.8722L29 31.8722L29 30.8722ZM185 30.8722L186 30.8722L186 29.8722L185 29.8722L185 30.8722ZM185 59.4722L185 60.4722L186 60.4722L186 59.4722L185 59.4722ZM28 59.4722L28 89.3722L30 89.3722L30 59.4722L28 59.4722ZM29 88.3722L2.99995 88.3722L2.99995 90.3722L29 90.3722L29 88.3722ZM3.99995 89.3722L3.99995 0.972178L1.99995 0.972178L1.99995 89.3722L3.99995 89.3722ZM2.99995 1.97218L29 1.97218L29 -0.0278232L2.99995 -0.027822L2.99995 1.97218ZM28 0.972177L28 30.8722L30 30.8722L30 0.972177L28 0.972177ZM29 31.8722L185 31.8722L185 29.8722L29 29.8722L29 31.8722ZM184 30.8722L184 59.4722L186 59.4722L186 30.8722L184 30.8722ZM185 58.4722L29 58.4722L29 60.4722L185 60.4722L185 58.4722Z" fill="#383838"/>
</svg>
